<?xml version="1.0" encoding="UTF-8"?>
<svg id="Layer_2" data-name="Layer 2" xmlns="http://www.w3.org/2000/svg" viewBox="0 0 677.81 186.04">
  <g id="Layer_1-2" data-name="Layer 1">
    <g>
      <path d="m0,174.11l6.04-28.4h-3.5l1.51-7.12h3.5l.51-2.43c1.13-5.23,3.14-9.44,10.03-9.44,1.15,0,3.21.22,3.94.45l-1.44,6.75c-.49-.11-.91-.11-1.39-.11-1.61,0-2.24.88-2.62,2.7l-.45,2.09h3.87l-1.51,7.12h-3.87l-6.04,28.4H0Zm33.89-23.46c1.26-6.08,2.07-9.73,2.45-12.06h8.1c-.09.97-.36,2.91-.83,5.03,1.86-4.19,5.03-5.54,8.27-5.57l-2.19,10.05c-5.23-.19-7.26,2-8.51,7.9l-3.78,18.11h-8.48l4.97-23.46Zm38.64,7.92l-1.15,5.58c-.49,2.26-.19,3.83,1.58,3.83,1.91,0,2.43-1.77,2.81-3.6l.32-1.53h8.28l-.18,1.03c-1.2,5.99-3.51,10.79-12,10.79-9.39,0-10.22-6.32-8.78-13.1l2.52-11.84c1.34-6.29,3.81-11.64,12.27-11.64,9.21,0,10.38,5.61,8.91,12.56l-1.69,7.91h-12.9Zm5.94-6.15l.83-3.95c.48-2.33.44-4-1.57-4-1.74,0-2.43,1.12-3.02,3.99l-.85,3.97h4.61Zm30.6,10.37l-.39,1.74c-.45,2.11-.29,3.77,1.47,3.77,1.34,0,1.97-.89,2.35-2.51.67-2.83-.05-4.74-2.88-7.3-4.83-4.34-5.98-7.15-4.98-12.33.99-5.11,4.25-8.12,10.11-8.12,7.77,0,9.98,4.78,8.86,10.26l-.27,1.33h-7.75l.32-1.69c.47-2.46.25-3.63-1.18-3.63-1.14,0-1.72.87-1.99,2.32-.34,1.76-.18,2.9,2.38,5.27,5.55,5.06,6.86,8.11,5.76,13.73-1.05,5.39-4,9.03-11.08,9.03-8.83,0-10.24-5.35-8.88-11.18l.16-.7h8Zm45.73-35.67l-2.94,13.85c1.58-1.78,3.74-2.92,6.59-2.92,5.25,0,6.53,3.97,5.42,9.08l-5.74,26.98h-8.51l5.35-25.35c.51-2.32.33-3.72-1.58-3.72s-2.63,1.2-3.3,4.32l-5.27,24.75h-8.48l9.96-46.99h8.48Z" style="fill: #f0e2c5;"/>
      <path d="m203.59,150.65c1.26-6.08,2.07-9.73,2.45-12.06h8.1c-.09.97-.36,2.91-.83,5.03,1.86-4.2,5.03-5.54,8.27-5.57l-2.19,10.05c-5.23-.19-7.26,2-8.51,7.9l-3.78,18.11h-8.48l4.97-23.46Zm53.74-.23l-2.72,12.94c-1.62,7.75-4.88,11.31-12.52,11.31s-10.82-4.29-9.2-12.02l2.92-13.75c1.61-7.65,5.44-10.85,12.31-10.85,7.22,0,10.9,4.25,9.2,12.37m-12.89-1.88l-3.31,15.65c-.49,2.21-.05,3.7,1.84,3.7s2.48-1.58,2.95-3.79l3.31-15.63c.43-2.01.35-3.72-1.8-3.72-1.96,0-2.52,1.65-2.99,3.79m48.22,16.24c-.56,2.64-1.69,8.1-1.84,9.32h-8.26c.07-.68.2-1.69.38-2.72-1.79,2.28-3.64,3.28-6.39,3.28-5.36,0-6.6-4.9-5.27-11.2,1.77-8.13,5.68-10.48,14.24-11.58.5-.07,1.02-.14,1.44-.18l.83-3.84c.47-2.25.31-3.51-1.34-3.51s-2.08,1.29-2.59,3.46l-.32,1.36h-8.18l.18-.84c1.21-5.6,3.23-10.3,11.52-10.3,7.4,0,10.55,3.28,9.07,10.26l-3.48,16.47Zm-6.92-6.91c-.29.04-.63.11-.94.18-2.83.62-4.19,1.61-4.99,5.18-.47,2.23-.44,4.23,1.47,4.23,2.03,0,2.8-1.82,3.51-5.07l.95-4.52Zm32.36,4.91l-.38,1.74c-.45,2.11-.29,3.77,1.47,3.77,1.33,0,1.96-.89,2.35-2.51.67-2.83-.05-4.74-2.88-7.3-4.83-4.34-5.98-7.15-4.99-12.33.99-5.11,4.25-8.12,10.11-8.12,7.77,0,9.98,4.78,8.86,10.27l-.27,1.33h-7.75l.32-1.69c.47-2.46.25-3.63-1.18-3.63-1.14,0-1.72.87-1.99,2.32-.34,1.76-.18,2.9,2.38,5.27,5.55,5.06,6.86,8.11,5.76,13.73-1.05,5.39-4,9.03-11.08,9.03-8.83,0-10.24-5.35-8.88-11.18l.16-.71h8Zm32.17-24.2h3.57l1.84-8.05h8.4l-1.84,8.05h4.01l-1.51,7.12h-4.01l-4.3,19.29c-.34,1.62-.08,2.55,1.84,2.55.47,0,1.17,0,1.88-.11l-1.4,6.54c-1.57.43-3.6.59-4.88.59-5.18,0-7.64-1.87-6.31-8.07l4.6-20.8h-3.39l1.51-7.12Zm36.45,19.98l-1.15,5.58c-.49,2.26-.19,3.83,1.58,3.83,1.91,0,2.43-1.77,2.82-3.6l.32-1.53h8.28l-.18,1.03c-1.2,5.99-3.51,10.78-12,10.78-9.39,0-10.22-6.31-8.78-13.1l2.52-11.84c1.34-6.29,3.81-11.64,12.27-11.64,9.21,0,10.38,5.61,8.91,12.56l-1.69,7.91h-12.9Zm5.94-6.15l.83-3.95c.47-2.33.44-4-1.57-4-1.74,0-2.43,1.11-3.02,3.99l-.85,3.97h4.61Zm52.65-25.29l-7.87,37.05c-1.07,5.05-1.64,7.99-1.96,9.94h-8.28c.07-.96.14-1.9.34-2.8-1.74,2.3-3.43,3.36-6.49,3.36-5.73,0-6.59-5.17-5.24-11.58l3-14.08c1.21-5.55,3.29-10.97,9.63-10.97,2.46,0,4.68.88,5.47,2.55l2.83-13.47h8.57Zm-17.99,22.06l-3.04,14.18c-.43,1.99-.42,4.1,1.56,4.1s2.85-1.62,3.51-4.77l2.73-12.85c.67-3.07.52-4.8-1.65-4.8-1.76,0-2.56,1.53-3.12,4.14" style="fill: #f0e2c5;"/>
      <path d="m484.82,171.73l-2.97,13.93h-8.46l7.82-36.87c1.01-4.77,1.71-8.41,2.05-10.19h8.33c-.02.46-.23,1.97-.47,3.11,1.41-2.13,3.57-3.65,6.67-3.65,5.06,0,6.57,4.3,5.11,11.16l-2.98,14.08c-1.56,7.26-4.08,11.38-9.87,11.38-2.49,0-4.42-1.11-5.22-2.95m6.63-8.67l2.8-13.31c.56-2.58.59-4.69-1.4-4.69s-2.83,2.09-3.52,5.38l-2.38,11.31c-.75,3.64-.73,5.69,1.41,5.69,1.75,0,2.58-1.87,3.1-4.38m46.79,1.73c-.56,2.64-1.68,8.1-1.84,9.32h-8.26c.07-.68.2-1.69.38-2.72-1.78,2.28-3.64,3.28-6.39,3.28-5.36,0-6.6-4.9-5.26-11.2,1.77-8.13,5.68-10.48,14.24-11.58.5-.07,1.02-.14,1.44-.18l.83-3.84c.47-2.25.31-3.51-1.34-3.51s-2.08,1.28-2.59,3.46l-.32,1.36h-8.18l.18-.84c1.21-5.6,3.23-10.3,11.52-10.3,7.4,0,10.55,3.28,9.08,10.26l-3.48,16.47Zm-6.92-6.91c-.29.04-.63.11-.94.18-2.83.62-4.19,1.61-4.99,5.18-.47,2.23-.44,4.23,1.47,4.23,2.03,0,2.8-1.82,3.51-5.07l.95-4.52Zm28.4-7.23c1.26-6.08,2.07-9.73,2.45-12.06h8.1c-.09.97-.36,2.91-.83,5.03,1.86-4.19,5.03-5.54,8.27-5.57l-2.19,10.05c-5.22-.19-7.26,2-8.51,7.9l-3.78,18.11h-8.48l4.97-23.46Zm34.04-12.06h3.57l1.84-8.05h8.39l-1.84,8.05h4.01l-1.52,7.12h-4.01l-4.3,19.29c-.34,1.62-.08,2.55,1.84,2.55.47,0,1.17,0,1.88-.11l-1.4,6.54c-1.57.43-3.6.59-4.88.59-5.18,0-7.64-1.87-6.31-8.07l4.6-20.8h-3.39l1.52-7.12Zm40.11,0c-.44,7.11-1.53,22.12-2.09,26.32h.23c2.09-7.05,5.51-17.6,8.51-26.32h8.7l-14.8,36.55c-3.64,8.84-6.31,10.9-12.53,10.9-1.48,0-3.2-.18-4.31-.42l1.58-7.26c.79.11,1.13.18,2.13.18,1.84,0,2.74-.65,3.72-3.1l.33-36.84h8.54Z" style="fill: #ff5c00;"/>
      <polygon points="52.76 57.42 33.71 57.42 29.03 80.57 51.59 80.57 45.73 99.02 2.37 99.02 23.02 1.47 65.79 1.47 61.84 19.92 41.92 19.92 37.67 38.82 56.71 38.82 52.76 57.42" style="fill: #ff5c00;"/>
      <path d="m81.03,67.68l-1.76,8.35c-1.17,5.86-.44,7.32,1.76,7.32,2.05,0,3.08-1.9,4.1-7.18,1.46-7.32-.44-11.86-6.89-19.48-8.5-10.11-14.65-16.99-10.99-34.28C70.63,6.59,78.1,0,93.34,0c23.58,0,24.32,15.23,21.09,29.59l-.58,2.64h-20.36l1.61-7.03c1.17-5.27.88-7.76-1.9-7.76-1.32,0-2.93.59-3.81,4.69-1.61,7.62-.29,9.23,6.01,16.99,12.01,14.79,15.82,21.09,12.3,38.09-3.51,17.14-12.16,23.29-28.56,23.29-19.63,0-25.34-10.55-21.09-29l.88-3.81h22.12Z" style="fill: #ff5c00;"/>
      <path d="m130.98,1.47h25.49c20.51,0,24.76,12.3,21.53,27.68l-2.05,9.67c-3.52,16.55-9.23,24.32-27.83,24.32h-7.47l-7.47,35.89h-22.85L130.98,1.47Zm13.62,43.65h2.2c3.66,0,5.13-1.76,6.15-6.74l2.78-13.62c1.02-5.13-.15-6.74-3.37-6.74h-2.05l-5.71,27.1Z" style="fill: #ff5c00;"/>
      <path d="m202.76,57.86l-8.79,41.16h-22.7L191.92,1.46h27.1c17.58,0,23.88,9.38,20.36,25.64l-1.46,6.74c-2.05,9.52-6.45,14.36-12.01,16.11,5.57,3.37,6.59,8.64,3.37,22.85-2.64,11.57-4.98,22.41-5.27,26.22h-22.12c-.73-1.76.44-8.64,5.13-30.76,2.05-9.67.73-10.4-3.08-10.4h-1.17Zm3.66-16.55h1.76c4.39,0,5.57-1.61,6.88-7.76l1.61-8.2c1.17-5.71.29-7.32-4.1-7.32h-1.32l-4.83,23.29Z" style="fill: #ff5c00;"/>
      <polygon points="283.18 57.42 264.14 57.42 259.45 80.57 282.01 80.57 276.15 99.02 232.79 99.02 253.44 1.47 296.22 1.47 292.26 19.92 272.34 19.92 268.09 38.82 287.13 38.82 283.18 57.42" style="fill: #ff5c00;"/>
      <path d="m311.45,67.68l-1.76,8.35c-1.17,5.86-.44,7.32,1.76,7.32,2.05,0,3.08-1.9,4.1-7.18,1.46-7.32-.44-11.86-6.89-19.48-8.5-10.11-14.65-16.99-10.99-34.28,3.37-15.82,10.84-22.41,26.08-22.41,23.58,0,24.32,15.23,21.09,29.59l-.58,2.64h-20.36l1.61-7.03c1.17-5.27.88-7.76-1.91-7.76-1.32,0-2.93.59-3.81,4.69-1.61,7.62-.29,9.23,6.01,16.99,12.01,14.79,15.82,21.09,12.3,38.09-3.52,17.14-12.16,23.29-28.56,23.29-19.63,0-25.34-10.55-21.09-29l.88-3.81h22.12Z" style="fill: #ff5c00;"/>
      <path d="m367.85,67.68l-1.76,8.35c-1.17,5.86-.44,7.32,1.76,7.32,2.05,0,3.08-1.9,4.1-7.18,1.46-7.32-.44-11.86-6.89-19.48-8.5-10.11-14.65-16.99-10.99-34.28,3.37-15.82,10.84-22.41,26.08-22.41,23.58,0,24.32,15.23,21.09,29.59l-.58,2.64h-20.36l1.61-7.03c1.17-5.27.88-7.76-1.91-7.76-1.32,0-2.93.59-3.81,4.69-1.61,7.62-.29,9.23,6.01,16.99,12.01,14.79,15.82,21.09,12.3,38.09-3.52,17.14-12.16,23.29-28.56,23.29-19.63,0-25.34-10.55-21.09-29l.88-3.81h22.12Z" style="fill: #ff5c00;"/>
      <path d="m463.65,29.88l-9.67,45.12c-4.25,20.07-13.33,25.49-30.18,25.49-17.72,0-26.22-8.79-21.97-28.42l10.25-47.75C416.19,5.27,426.01,0,440.66,0c19.48,0,27.25,9.96,23,29.88m-28.71-6.45l-11.28,53.47c-.73,3.66-.15,6.01,2.34,6.01,2.78,0,3.66-2.05,4.54-6.01l11.28-53.61c.88-4.39.15-5.71-2.49-5.71-2.2,0-3.52,1.46-4.39,5.86" style="fill: #ff5c00;"/>
      <polygon points="585.53 1.46 608.53 1.46 591.83 79.98 613.07 79.98 607.5 99.02 565.02 99.02 585.53 1.46" style="fill: #ff5c00;"/>
      <polygon points="664.78 57.42 645.73 57.42 641.05 80.57 663.61 80.57 657.75 99.02 614.39 99.02 635.04 1.47 677.81 1.47 673.86 19.92 653.94 19.92 649.69 38.82 668.73 38.82 664.78 57.42" style="fill: #ff5c00;"/>
      <path d="m514.65,54.08c-1.1-.45-1.62-1.71-1.17-2.81.46-1.1,1.71-1.62,2.81-1.17,1.1.46,1.62,1.71,1.16,2.81-.45,1.1-1.71,1.62-2.81,1.16m-18.17-47.8c25.26-10.47,54.33,1.56,64.8,26.83,10.47,25.26-1.56,54.33-26.82,64.8-25.26,10.47-54.34-1.56-64.8-26.83-10.47-25.26,1.56-54.33,26.83-64.8m25.96,28.99c-9.29-3.85-19.94.57-23.79,9.86-3.84,9.29.57,19.94,9.86,23.79,9.29,3.85,19.94-.57,23.79-9.86,3.85-9.29-.57-19.94-9.86-23.79" style="fill: #f0e2c5;"/>
    </g>
  </g>
</svg>