<?xml version="1.0" encoding="UTF-8"?>
<svg id="Layer_2" data-name="Layer 2" xmlns="http://www.w3.org/2000/svg" viewBox="0 0 162.74 108.75">
  <g id="Layer_1-2" data-name="Layer 1">
    <g>
      <path d="m110.45,35.09c-1.4,0-2.76.16-4.08.44v37.52c1.32.28,2.68.44,4.08.44,10.61,0,19.2-8.6,19.2-19.21s-8.6-19.2-19.2-19.2" style="fill: #ff5c00;"/>
      <path d="m158.75,34.27C149.43,11.78,126.12-.77,103.05,2.52c1.96.9,3.32,2.87,3.32,5.16v27.86c3.7-.81,7.66-.54,11.42,1.01,9.8,4.06,14.45,15.28,10.4,25.08-3.61,8.72-12.91,13.35-21.82,11.4v28.02c0,2.18-1.22,4.06-3.02,5.02,8.9,1.24,18.23.21,27.12-3.48,26.64-11.04,39.33-41.7,28.29-68.33" style="fill: #f0e2c5;"/>
      <path d="m112.54,55.16c.48-1.16-.07-2.48-1.23-2.96-1.16-.48-2.49.07-2.96,1.23-.48,1.16.07,2.49,1.23,2.96,1.16.48,2.49-.07,2.96-1.23" style="fill: #f0e2c5;"/>
      <path d="m39.93,32.18l2.23-10.48h-1.54l.5-2.31h1.52l.27-1.26c.5-2.33,1.37-3.67,3.81-3.67.42,0,1.17.11,1.39.19l-.51,2.31c-.18-.03-.41-.08-.66-.08-.82,0-1.01.49-1.2,1.36l-.25,1.15h1.78l-.5,2.31h-1.76l-2.23,10.48h-2.86Z" style="fill: #f0e2c5;"/>
      <path d="m50.14,23.72c.44-2.1.73-3.43.88-4.33h2.72c-.07.54-.13.95-.35,2.08.83-1.59,2.06-2.27,3.75-2.27l-.68,3.12c-2.13-.14-3.3.78-3.88,3.46l-1.36,6.41h-2.88l1.8-8.46Z" style="fill: #f0e2c5;"/>
      <path d="m62.1,26.49c-.11.58-.17,1.12-.17,1.58,0,1.21.39,1.97,1.35,1.97,1.11,0,1.57-.73,1.87-1.49h2.79c-.5,1.67-1.9,3.83-4.91,3.83-4.03,0-4.21-3.63-3.61-6.74.63-3.15,2.36-6.45,5.82-6.45,3.83,0,4.27,3.34,3.48,6.37l-.24.94h-6.38Zm4.02-2.09c.09-.41.17-.83.17-1.21,0-.96-.29-1.68-1.35-1.68-1.26,0-2,1.41-2.38,2.89h3.56Z" style="fill: #f0e2c5;"/>
      <path d="m74.68,28.4c0,.82.25,1.82,1.49,1.82.78,0,1.33-.32,1.49-1.05.21-.98-.1-1.62-1.68-2.6-2.44-1.51-2.9-2.78-2.53-4.49.35-1.6,1.56-2.89,3.9-2.89,3.26,0,4.1,2.19,3.9,3.89h-2.64c0-.97-.26-1.73-1.28-1.73-.5,0-1.01.18-1.17.9-.19.82.1,1.3,1.35,2.07,2.77,1.69,3.28,3,2.92,4.93-.37,1.97-1.97,3.13-4.45,3.13-3.39,0-4.07-2.24-4-3.98h2.68Z" style="fill: #f0e2c5;"/>
      <path d="m90.68,14.63l-1.27,5.94c.6-.75,1.56-1.37,2.96-1.37,2.04,0,3.11,1.34,2.56,3.95l-1.92,9.03h-2.84l1.81-8.55c.26-1.25.05-2.03-1.09-2.03-1.25,0-1.91,1.11-2.28,2.8l-1.66,7.78h-2.88l3.73-17.55h2.88Z" style="fill: #f0e2c5;"/>
      <path d="m14.22,53.37c.44-2.1.73-3.43.88-4.33h2.72c-.07.54-.13.95-.35,2.08.83-1.59,2.06-2.27,3.75-2.27l-.68,3.12c-2.13-.14-3.3.78-3.88,3.46l-1.36,6.41h-2.88l1.8-8.46Z" style="fill: #f0e2c5;"/>
      <path d="m32.98,55.68c-.66,3.33-2.26,6.34-5.78,6.34-3.33,0-4.57-2.51-3.69-6.81.79-3.95,2.95-6.37,5.73-6.37,3.69,0,4.52,2.99,3.75,6.84m-6.65-.14c-.59,2.9-.19,4.13,1.12,4.13,1.23,0,2.12-1.58,2.69-4.21.5-2.3.61-4.25-1.09-4.25-1.37,0-2.31,2.25-2.72,4.33" style="fill: #f0e2c5;"/>
      <path d="m45.31,58.7c-.23,1.14-.53,2.4-.63,3.13h-2.77c.03-.24.08-.74.17-1.11-.64.87-1.4,1.31-2.77,1.31-2.55,0-3.15-2.19-2.75-4.19.5-2.44,2.2-3.26,4.4-3.65.82-.15,1.67-.22,2.56-.29l.21-.95c.21-1,.2-2.02-1.17-2.02-.96,0-1.34.64-1.59,1.57h-2.71c.46-2,1.57-3.66,4.55-3.66s4.31,1.38,3.66,4.39l-1.16,5.47Zm-2.23-2.71c-.6.05-1.17.1-1.68.23-1.02.25-1.79.69-2.01,1.71-.21.96.03,1.82,1.14,1.82,1.3,0,2-1.01,2.39-2.94l.16-.81Z" style="fill: #f0e2c5;"/>
      <path d="m52.27,58.05c0,.82.25,1.82,1.49,1.82.78,0,1.33-.32,1.49-1.05.21-.98-.1-1.62-1.68-2.6-2.44-1.51-2.91-2.78-2.53-4.49.35-1.6,1.56-2.89,3.9-2.89,3.26,0,4.1,2.19,3.9,3.89h-2.64c0-.97-.26-1.73-1.28-1.73-.5,0-1.01.18-1.17.9-.19.82.1,1.3,1.35,2.07,2.77,1.69,3.28,3,2.92,4.93-.37,1.97-1.97,3.13-4.45,3.13-3.39,0-4.07-2.24-4-3.98h2.68Z" style="fill: #f0e2c5;"/>
      <path d="m62.95,49.04h1.62l.7-3.17h2.86l-.7,3.17h1.88l-.48,2.31h-1.9l-1.59,7.25c-.16.76-.1,1.21.82,1.21.33,0,.72-.03.96-.08l-.42,2.08c-.58.19-1.41.2-1.89.2-2.01,0-2.92-.78-2.44-3.09l1.69-7.57h-1.62l.5-2.31Z" style="fill: #f0e2c5;"/>
      <path d="m74.26,56.14c-.11.58-.17,1.12-.17,1.58,0,1.21.39,1.97,1.35,1.97,1.11,0,1.57-.73,1.87-1.49h2.79c-.5,1.67-1.9,3.83-4.91,3.83-4.03,0-4.21-3.63-3.61-6.74.63-3.15,2.36-6.45,5.82-6.45,3.83,0,4.27,3.34,3.48,6.37l-.24.94h-6.38Zm4.02-2.09c.09-.41.17-.83.17-1.21,0-.96-.29-1.68-1.35-1.68-1.26,0-2,1.41-2.38,2.89h3.56Z" style="fill: #f0e2c5;"/>
      <path d="m96.77,44.28l-2.98,13.99c-.33,1.51-.58,2.8-.7,3.55h-2.83c.05-.32.1-.8.21-1.33-.74,1.02-1.55,1.54-2.96,1.54-2.31,0-3.55-2.17-2.5-6.94.96-4.37,3.01-6.25,5.28-6.25,1.32,0,2.09.54,2.39,1.19l1.24-5.76h2.86Zm-8.91,11.09c-.64,3.08-.15,4.31,1.05,4.31,1.52,0,2.18-1.58,2.82-4.58.52-2.49.48-3.86-1.06-3.86-1.18,0-2.22,1.39-2.8,4.13" style="fill: #f0e2c5;"/>
      <path d="m40.52,90.3l-1.23,5.79h-2.88l2.91-13.72c.37-1.73.59-2.88.74-3.69h2.81c-.02.36-.13.86-.21,1.34.63-.91,1.46-1.54,2.96-1.54,2.13,0,3.64,1.99,2.6,6.79-.98,4.5-2.92,6.4-5.2,6.4-1.35,0-2.26-.65-2.5-1.38m4.86-5.19c.65-3.25.12-4.23-1.07-4.23-1.26,0-2.2,1.5-2.67,3.77-.73,3.4-.45,4.65,1.01,4.65,1.2,0,2.12-1.19,2.73-4.19" style="fill: #ff5c00;"/>
      <path d="m60.57,88.35c-.23,1.14-.53,2.4-.63,3.13h-2.77c.03-.24.08-.74.17-1.11-.64.87-1.4,1.31-2.77,1.31-2.55,0-3.15-2.19-2.75-4.19.5-2.44,2.2-3.26,4.4-3.65.82-.15,1.67-.22,2.56-.29l.21-.95c.21-1,.2-2.02-1.17-2.02-.96,0-1.34.64-1.59,1.57h-2.71c.46-2,1.57-3.66,4.55-3.66s4.31,1.38,3.66,4.39l-1.16,5.47Zm-2.23-2.71c-.6.05-1.17.1-1.68.23-1.02.25-1.79.69-2.01,1.71-.21.96.03,1.82,1.14,1.82,1.3,0,2-1.01,2.39-2.94l.16-.81Z" style="fill: #ff5c00;"/>
      <path d="m66.67,83.02c.44-2.1.73-3.43.88-4.33h2.72c-.07.54-.13.95-.35,2.08.83-1.59,2.06-2.27,3.75-2.27l-.68,3.12c-2.13-.14-3.3.78-3.88,3.46l-1.36,6.41h-2.88l1.8-8.46Z" style="fill: #ff5c00;"/>
      <path d="m77.11,78.69h1.62l.7-3.17h2.86l-.7,3.17h1.88l-.48,2.31h-1.9l-1.59,7.25c-.16.76-.1,1.21.82,1.21.33,0,.72-.03.96-.08l-.42,2.08c-.58.19-1.41.2-1.89.2-2.01,0-2.92-.78-2.44-3.09l1.69-7.57h-1.62l.5-2.31Z" style="fill: #ff5c00;"/>
      <path d="m89.86,78.69c.12,2.41-.1,8.67-.15,9.94h.03c.68-1.85,2.6-6.36,4.2-9.94h2.89l-6.34,13.52c-1.87,4-3.13,4.06-5.03,4.06-.35,0-.97-.08-1.36-.17l.53-2.4c.23.05.65.1.95.1.92,0,1.51-.31,2.06-1.64l-.67-13.47h2.91Z" style="fill: #ff5c00;"/>
      <path d="m100.69,108.75H7.68c-4.23,0-7.68-3.44-7.68-7.68V7.68C0,3.44,3.44,0,7.68,0h93.01c4.23,0,7.68,3.44,7.68,7.68v93.39c0,4.23-3.44,7.68-7.68,7.68M7.68,4c-2.03,0-3.68,1.65-3.68,3.68v93.39c0,2.03,1.65,3.68,3.68,3.68h93.01c2.03,0,3.68-1.65,3.68-3.68V7.68c0-2.03-1.65-3.68-3.68-3.68H7.68Z" style="fill: #f0e2c5;"/>
    </g>
  </g>
</svg>