<?xml version="1.0" encoding="UTF-8"?>
<svg id="Layer_2" data-name="Layer 2" xmlns="http://www.w3.org/2000/svg" viewBox="0 0 719.42 287.24">
  <g id="Logo">
    <g id="Final">
      <g id="Semibold">
        <g>
          <path d="m21.41,77.8c2.51,2.75,5.28,4.88,8.32,6.4,3.03,1.52,6.3,2.28,9.81,2.28,4.08,0,7.4-1.04,9.96-3.13,2.56-2.09,3.84-4.93,3.84-8.53,0-3.13-.78-5.64-2.35-7.54-1.56-1.9-3.89-3.58-6.97-5.05-3.08-1.47-6.85-3.06-11.31-4.76-2.37-.85-5.1-2.01-8.18-3.49-3.08-1.47-6-3.36-8.75-5.69-2.75-2.32-5.03-5.17-6.83-8.53-1.8-3.36-2.7-7.42-2.7-12.16,0-5.69,1.44-10.6,4.34-14.72,2.89-4.12,6.83-7.3,11.81-9.53,4.98-2.23,10.55-3.34,16.71-3.34s11.83,1.07,16.43,3.2c4.6,2.13,8.44,4.84,11.52,8.11,3.08,3.27,5.48,6.66,7.18,10.17l-15.93,8.82c-1.33-2.37-2.92-4.53-4.77-6.47-1.85-1.94-3.96-3.51-6.33-4.69-2.37-1.18-5.07-1.78-8.11-1.78-3.98,0-6.97.93-8.96,2.77-1.99,1.85-2.99,4.01-2.99,6.47s.8,4.62,2.42,6.47c1.61,1.85,4.08,3.6,7.4,5.26,3.32,1.66,7.49,3.34,12.52,5.05,3.22,1.14,6.33,2.56,9.32,4.27,2.99,1.71,5.69,3.77,8.11,6.19,2.42,2.42,4.31,5.26,5.69,8.53,1.37,3.27,2.06,7.04,2.06,11.31,0,4.84-.95,9.15-2.85,12.94-1.9,3.79-4.5,6.99-7.82,9.6-3.32,2.61-7.04,4.6-11.16,5.97-4.12,1.37-8.46,2.06-13.01,2.06-6.07,0-11.74-1.16-17-3.49s-9.84-5.48-13.73-9.46C5.21,87.33,2.18,83.02,0,78.37l14.51-10.24c2.09,3.7,4.39,6.92,6.9,9.67Z" style="fill: #fafafa; stroke-width: 0px;"/>
          <path d="m81.44,0v19.76h63.3V0h-63.3Zm0,39v19.76h58.16v-19.76h-58.16Zm0,45.5v19.76h63.3v-19.76h-63.3Z" style="fill: #fafafa; stroke-width: 0px;"/>
          <g>
            <path d="m253.2,64.13c.87-3.93,1.28-8.04,1.28-12.35,0-7.59-1.3-14.54-3.91-20.84-2.61-6.3-6.26-11.77-10.94-16.44-4.7-4.64-10.23-8.22-16.57-10.73C216.69,1.25,209.72,0,202.13,0s-14.42,1.24-20.82,3.77c-6.4,2.51-12.03,6.08-16.87,10.73-4.82,4.66-8.57,10.13-11.22,16.44-2.67,6.3-3.99,13.26-3.99,20.84s1.3,14.42,3.91,20.82c2.61,6.4,6.3,11.97,11.1,16.71,4.78,4.76,10.39,8.42,16.85,11.02,6.44,2.61,13.45,3.91,21.04,3.91s14.7-1.3,21.06-3.91c3.62-1.48,6.97-3.32,10.06-5.49,2.33-1.64,4.5-3.48,6.52-5.53.71-.71,1.4-1.46,2.05-2.21l-14.9-11.28c-2.05,2.33-4.48,4.29-7.29,5.89,0,0-.02,0-.02.02-4.74,2.69-10.17,4.03-16.34,4.03s-11.58-1.42-16.5-4.27c-4.94-2.84-8.85-6.82-11.73-11.93-2.9-5.14-4.35-11.04-4.35-17.78,0-6.36,1.36-12.01,4.05-16.93,2.71-4.94,6.4-8.83,11.1-11.68,4.7-2.84,10.11-4.27,16.28-4.27,6.64,0,12.41,1.58,17.29,4.7,4.88,3.12,8.65,7.31,11.32,12.52,2.65,5.22,3.97,11.04,3.97,17.48,0,3.77-.47,7.27-1.42,10.51h19.91Z" style="fill: #fafafa; stroke-width: 0px;"/>
            <polygon points="267.38 104.25 239.32 104.25 205.13 64.13 233.2 64.13 267.38 104.25" style="fill: #6462da; stroke-width: 0px;"/>
          </g>
          <path d="m287.78,41.68h16.07c2.94,0,5.5-.49,7.68-1.49,2.18-.99,3.86-2.43,5.05-4.32,1.18-1.88,1.78-4.12,1.78-6.7,0-3.97-1.3-7-3.91-9.08-2.61-2.08-6.14-3.13-10.6-3.13h-10.95v70.25h13.09c3.41,0,6.49-.52,9.24-1.56,2.75-1.04,4.91-2.7,6.47-4.99,1.56-2.28,2.35-5.21,2.35-8.78,0-2.58-.45-4.79-1.35-6.62-.9-1.84-2.18-3.37-3.84-4.61-1.66-1.24-3.58-2.13-5.76-2.68-2.18-.54-4.55-.82-7.11-.82h-18.21v-11.61h20.06c4.83,0,9.46.55,13.87,1.64,4.41,1.09,8.37,2.81,11.88,5.14,3.51,2.33,6.28,5.33,8.32,9,2.04,3.67,3.06,8.09,3.06,13.25,0,6.85-1.54,12.45-4.62,16.82-3.08,4.37-7.42,7.59-13.01,9.67-5.59,2.08-12.09,3.13-19.49,3.13h-35.28V0h33.14c6.64,0,12.47.97,17.49,2.9,5.03,1.94,8.96,4.84,11.81,8.71,2.84,3.87,4.27,8.78,4.27,14.74,0,5.26-1.42,9.77-4.27,13.54-2.85,3.77-6.78,6.62-11.81,8.56-5.03,1.94-10.86,2.9-17.49,2.9h-17.92v-9.68Z" style="fill: #fafafa; stroke-width: 0px;"/>
          <path d="m426.68,0l-34.28,61.03v43.16h-20.62v-43.02L337.5,0h23.19l21.34,41.97L403.49,0h23.19Z" style="fill: #fafafa; stroke-width: 0px;"/>
          <path d="m416.14,0h73.96v19.2h-26.88v84.99l-20.34-5.93V19.2h-26.74V0Z" style="fill: #fafafa; stroke-width: 0px;"/>
          <path d="m515.32,0v104.19h-19.63V0h19.63ZM508.78,0h50.21v19.76h-50.21V0Zm0,39.02h47.36v19.76h-47.36v-19.76Zm0,45.42h50.21v19.76h-50.21v-19.76Z" style="fill: #fafafa; stroke-width: 0px;"/>
        </g>
        <g>
          <path d="m21.41,197.13c2.51,2.75,5.28,4.88,8.32,6.4,3.03,1.52,6.3,2.28,9.81,2.28,4.08,0,7.4-1.04,9.96-3.13,2.56-2.09,3.84-4.93,3.84-8.53,0-3.13-.78-5.64-2.35-7.54-1.56-1.9-3.89-3.58-6.97-5.05-3.08-1.47-6.85-3.06-11.31-4.76-2.37-.85-5.1-2.01-8.18-3.49-3.08-1.47-6-3.36-8.75-5.69-2.75-2.32-5.03-5.17-6.83-8.53-1.8-3.36-2.7-7.42-2.7-12.16,0-5.69,1.44-10.6,4.34-14.72,2.89-4.12,6.83-7.3,11.81-9.53,4.98-2.23,10.55-3.34,16.71-3.34s11.83,1.07,16.43,3.2c4.6,2.13,8.44,4.84,11.52,8.11,3.08,3.27,5.48,6.66,7.18,10.17l-15.93,8.82c-1.33-2.37-2.92-4.53-4.77-6.47-1.85-1.94-3.96-3.51-6.33-4.69-2.37-1.18-5.07-1.78-8.11-1.78-3.98,0-6.97.93-8.96,2.77-1.99,1.85-2.99,4.01-2.99,6.47s.8,4.62,2.42,6.47c1.61,1.85,4.08,3.6,7.4,5.26,3.32,1.66,7.49,3.34,12.52,5.05,3.22,1.14,6.33,2.56,9.32,4.27,2.99,1.71,5.69,3.77,8.11,6.19,2.42,2.42,4.31,5.26,5.69,8.53,1.37,3.27,2.06,7.04,2.06,11.31,0,4.84-.95,9.15-2.85,12.94-1.9,3.79-4.5,6.99-7.82,9.6-3.32,2.61-7.04,4.6-11.16,5.97-4.12,1.37-8.46,2.06-13.01,2.06-6.07,0-11.74-1.16-17-3.49s-9.84-5.48-13.73-9.46c-3.89-3.98-6.92-8.3-9.1-12.94l14.51-10.24c2.09,3.7,4.39,6.92,6.9,9.67Z" style="fill: #fafafa; stroke-width: 0px;"/>
          <path d="m83.68,150.26c2.65-6.3,6.35-11.78,11.09-16.43,4.74-4.64,10.31-8.23,16.71-10.74,6.4-2.51,13.35-3.77,20.84-3.77s14.56,1.26,20.91,3.77c6.35,2.51,11.92,6.09,16.71,10.74,4.79,4.65,8.49,10.12,11.09,16.43,2.61,6.31,3.91,13.25,3.91,20.84s-1.31,14.44-3.91,20.84c-2.61,6.4-6.26,11.97-10.95,16.71-4.69,4.74-10.24,8.42-16.64,11.02-6.4,2.61-13.44,3.91-21.12,3.91s-14.72-1.31-21.12-3.91c-6.4-2.61-11.97-6.28-16.71-11.02-4.74-4.74-8.39-10.31-10.95-16.71-2.56-6.4-3.84-13.35-3.84-20.84s1.33-14.53,3.98-20.84Zm21.48,37.76c2.65,4.93,6.3,8.82,10.95,11.66,4.65,2.84,10.05,4.27,16.22,4.27s11.57-1.42,16.22-4.27c4.65-2.84,8.27-6.73,10.88-11.66,2.61-4.93,3.91-10.57,3.91-16.93s-1.28-11.99-3.84-16.93c-2.56-4.93-6.16-8.82-10.81-11.66-4.65-2.84-10.1-4.27-16.36-4.27s-11.57,1.42-16.22,4.27c-4.65,2.84-8.3,6.73-10.95,11.66-2.65,4.93-3.98,10.58-3.98,16.93s1.33,12,3.98,16.93Z" style="fill: #fafafa; stroke-width: 0px;"/>
          <path d="m211.21,119.32v85.64h39.68v18.62h-60.02v-98.33l20.34-5.93Z" style="fill: #fafafa; stroke-width: 0px;"/>
          <path d="m274.28,119.36v66.82c0,5.8,1.49,10.46,4.48,13.99,2.99,3.53,7.42,5.29,13.3,5.29s10.31-1.76,13.3-5.29c2.99-3.53,4.48-8.19,4.48-13.99v-66.82h20.34v68.12c0,5.99-.95,11.26-2.85,15.8-1.9,4.54-4.58,8.36-8.04,11.45-3.46,3.09-7.52,5.43-12.16,7.03-4.65,1.59-9.67,2.39-15.08,2.39s-10.58-.8-15.22-2.39c-4.65-1.59-8.68-3.94-12.09-7.03-3.41-3.09-6.07-6.91-7.97-11.45-1.9-4.54-2.85-9.81-2.85-15.8v-68.12h20.34Z" style="fill: #fafafa; stroke-width: 0px;"/>
          <path d="m335.06,119.36h73.96v19.2h-26.88v84.99h-20.34v-84.99h-26.74v-19.2Z" style="fill: #fafafa; stroke-width: 0px;"/>
          <path d="m435.24,125.28v98.26h-20.63v-104.19l20.63,5.93Z" style="fill: #fafafa; stroke-width: 0px;"/>
          <path d="m445.14,150.26c2.65-6.3,6.35-11.78,11.09-16.43,4.74-4.64,10.31-8.23,16.71-10.74,6.4-2.51,13.35-3.77,20.84-3.77s14.56,1.26,20.91,3.77c6.35,2.51,11.92,6.09,16.71,10.74,4.79,4.65,8.49,10.12,11.09,16.43,2.61,6.31,3.91,13.25,3.91,20.84s-1.31,14.44-3.91,20.84c-2.61,6.4-6.26,11.97-10.95,16.71-4.69,4.74-10.24,8.42-16.64,11.02-6.4,2.61-13.44,3.91-21.12,3.91s-14.72-1.31-21.12-3.91c-6.4-2.61-11.97-6.28-16.71-11.02-4.74-4.74-8.39-10.31-10.95-16.71-2.56-6.4-3.84-13.35-3.84-20.84s1.33-14.53,3.98-20.84Zm21.48,37.76c2.65,4.93,6.3,8.82,10.95,11.66,4.65,2.84,10.05,4.27,16.22,4.27s11.57-1.42,16.22-4.27c4.65-2.84,8.27-6.73,10.88-11.66,2.61-4.93,3.91-10.57,3.91-16.93s-1.28-11.99-3.84-16.93c-2.56-4.93-6.16-8.82-10.81-11.66-4.65-2.84-10.1-4.27-16.36-4.27s-11.57,1.42-16.22,4.27c-4.65,2.84-8.3,6.73-10.95,11.66-2.65,4.93-3.98,10.58-3.98,16.93s1.33,12,3.98,16.93Z" style="fill: #fafafa; stroke-width: 0px;"/>
          <path d="m640.81,124.06v99.49l-70.84-63.48v58.75h-19.63v-99.49l70.83,63.48v-58.75h19.63Z" style="fill: #fafafa; stroke-width: 0px;"/>
          <path d="m666.15,197.13c2.51,2.75,5.28,4.88,8.32,6.4,3.03,1.52,6.3,2.28,9.81,2.28,4.08,0,7.4-1.04,9.96-3.13,2.56-2.09,3.84-4.93,3.84-8.53,0-3.13-.78-5.64-2.35-7.54-1.56-1.9-3.89-3.58-6.97-5.05-3.08-1.47-6.85-3.06-11.31-4.76-2.37-.85-5.1-2.01-8.18-3.49-3.08-1.47-6-3.36-8.75-5.69-2.75-2.32-5.03-5.17-6.83-8.53-1.8-3.36-2.7-7.42-2.7-12.16,0-5.69,1.44-10.6,4.34-14.72,2.89-4.12,6.83-7.3,11.81-9.53,4.98-2.23,10.55-3.34,16.71-3.34s11.83,1.07,16.43,3.2c4.6,2.13,8.44,4.84,11.52,8.11,3.08,3.27,5.48,6.66,7.18,10.17l-15.93,8.82c-1.33-2.37-2.92-4.53-4.77-6.47-1.85-1.94-3.96-3.51-6.33-4.69-2.37-1.18-5.07-1.78-8.11-1.78-3.98,0-6.97.93-8.96,2.77-1.99,1.85-2.99,4.01-2.99,6.47s.8,4.62,2.42,6.47c1.61,1.85,4.08,3.6,7.4,5.26,3.32,1.66,7.49,3.34,12.52,5.05,3.22,1.14,6.33,2.56,9.32,4.27,2.99,1.71,5.69,3.77,8.11,6.19,2.42,2.42,4.31,5.26,5.69,8.53,1.37,3.27,2.06,7.04,2.06,11.31,0,4.84-.95,9.15-2.85,12.94-1.9,3.79-4.5,6.99-7.82,9.6-3.32,2.61-7.04,4.6-11.16,5.97-4.12,1.37-8.46,2.06-13.01,2.06-6.07,0-11.74-1.16-17-3.49s-9.84-5.48-13.73-9.46c-3.89-3.98-6.92-8.3-9.1-12.94l14.51-10.24c2.09,3.7,4.39,6.92,6.9,9.67Z" style="fill: #fafafa; stroke-width: 0px;"/>
        </g>
      </g>
      <text transform="translate(0 272.03)" style="fill: #fafafa; font-family: JostRoman-ExtraLight, Jost; font-size: 43.46px; font-variation-settings: &apos;wght&apos; 200; font-weight: 200;"><tspan x="0" y="0" style="letter-spacing: -.08em;">T</tspan><tspan x="15.69" y="0" style="letter-spacing: 0em;">urning ideas into code</tspan></text>
    </g>
  </g>
</svg>